<svg width="176" height="99" viewBox="0 0 176 99" fill="none" xmlns="http://www.w3.org/2000/svg">
<path d="M73.627 5.38281L73.751 5.65039L74.0469 5.6709L95.1963 7.0957L108.66 30.5566L108.828 30.8496L109.162 30.8037L116.845 29.7305L103.285 47.0781L103.163 47.2344L103.181 47.4316L104.238 59.0615L99.0459 62.9834L98.874 63.1133L98.8506 63.3281L98.1455 69.7852L89.9473 79.0332L81.3525 80.4385L74.7324 61.1084L77.5537 53.9443L77.6396 53.7246L77.5264 53.5195L71.8486 43.2334L73.5996 36.9365L73.7432 36.418L73.2158 36.3125L64.793 34.6289L64.6934 34.6084L64.5938 34.6289L53.8027 36.8564L44.5 26.627V17.9717L56.8975 2.03809L71.3701 0.533203L73.627 5.38281ZM113.985 61.5371L110.441 69.9893L108.276 69.4326C108.485 64.9436 108.656 62.698 110.462 58.9092L112.456 58.8359L112.706 58.8262L112.849 58.6201L114.294 56.5254L113.985 61.5371Z" stroke="black"/>
<path d="M80.872 28.4H74.312L72.68 34H69.064L75.88 11.6H79.272L86.12 34H82.504L80.872 28.4ZM79.944 25.104L77.608 17.008L75.24 25.104H79.944Z" fill="#6FB4FC"/>
<path d="M21.5359 88.48H19.7999L19.3519 90H18.5679L20.2879 84.4H21.0399L22.7599 90H21.9839L21.5359 88.48ZM21.3359 87.8L20.6639 85.528L19.9999 87.8H21.3359ZM23.3522 84.4H26.3042V85.064H24.0802V86.728H25.8002V87.4H24.0802V90H23.3522V84.4ZM27.0098 84.4H28.4498C29.0364 84.4 29.4924 84.5467 29.8178 84.84C30.1484 85.128 30.3138 85.552 30.3138 86.112C30.3138 86.432 30.2364 86.7227 30.0818 86.984C29.9324 87.24 29.7218 87.4427 29.4498 87.592L30.5698 90H29.7058L28.7058 87.808C28.6204 87.8187 28.5324 87.824 28.4418 87.824H27.7378V90H27.0098V84.4ZM28.3858 87.152C28.7911 87.152 29.0871 87.064 29.2738 86.888C29.4604 86.712 29.5538 86.4533 29.5538 86.112C29.5538 85.7653 29.4604 85.504 29.2738 85.328C29.0871 85.152 28.7911 85.064 28.3858 85.064H27.7378V87.152H28.3858ZM31.3459 84.4H32.0819V90H31.3459V84.4ZM35.4758 90.112C34.9584 90.112 34.5078 89.9947 34.1238 89.76C33.7398 89.52 33.4411 89.1813 33.2278 88.744C33.0198 88.3013 32.9158 87.7867 32.9158 87.2C32.9158 86.6187 33.0224 86.1093 33.2358 85.672C33.4544 85.2293 33.7558 84.888 34.1398 84.648C34.5238 84.408 34.9584 84.288 35.4438 84.288C35.8704 84.288 36.2758 84.368 36.6598 84.528L36.5798 85.208C36.2384 85.0373 35.9078 84.952 35.5878 84.952C35.1931 84.952 34.8544 85.0507 34.5718 85.248C34.2944 85.4453 34.0838 85.7147 33.9398 86.056C33.7958 86.3973 33.7238 86.7787 33.7238 87.2C33.7238 87.6213 33.7958 88.0027 33.9398 88.344C34.0838 88.6853 34.2944 88.9547 34.5718 89.152C34.8544 89.3493 35.1958 89.448 35.5958 89.448C35.9424 89.448 36.2704 89.368 36.5798 89.208L36.6598 89.888C36.3184 90.0373 35.9238 90.112 35.4758 90.112ZM39.9031 88.48H38.1671L37.7191 90H36.9351L38.6551 84.4H39.4071L41.1271 90H40.3511L39.9031 88.48ZM39.7031 87.8L39.0311 85.528L38.3671 87.8H39.7031ZM41.7194 84.4H42.5434L44.7594 88.496V84.4H45.4874V90H44.8074L42.4474 85.672V90H41.7194V84.4ZM50.3664 90.112C49.8491 90.112 49.3984 89.9947 49.0144 89.76C48.6304 89.52 48.3317 89.1813 48.1184 88.744C47.9104 88.3013 47.8064 87.7867 47.8064 87.2C47.8064 86.6187 47.9131 86.1093 48.1264 85.672C48.3451 85.2293 48.6464 84.888 49.0304 84.648C49.4144 84.408 49.8491 84.288 50.3344 84.288C50.7611 84.288 51.1664 84.368 51.5504 84.528L51.4704 85.208C51.1291 85.0373 50.7984 84.952 50.4784 84.952C50.0837 84.952 49.7451 85.0507 49.4624 85.248C49.1851 85.4453 48.9744 85.7147 48.8304 86.056C48.6864 86.3973 48.6144 86.7787 48.6144 87.2C48.6144 87.6213 48.6864 88.0027 48.8304 88.344C48.9744 88.6853 49.1851 88.9547 49.4624 89.152C49.7451 89.3493 50.0864 89.448 50.4864 89.448C50.8331 89.448 51.1611 89.368 51.4704 89.208L51.5504 89.888C51.2091 90.0373 50.8144 90.112 50.3664 90.112ZM52.2897 84.4H55.2817V85.064H53.0177V86.736H54.8097V87.408H53.0177V89.336H55.3457V90H52.2897V84.4ZM56.1022 84.4H56.9262L59.1422 88.496V84.4H59.8702V90H59.1902L56.8302 85.672V90H56.1022V84.4ZM61.9305 85.064H60.5385V84.4H64.0585V85.064H62.6665V90H61.9305V85.064ZM64.7272 84.4H67.7192V85.064H65.4552V86.736H67.2472V87.408H65.4552V89.336H67.7832V90H64.7272V84.4ZM68.5957 84.4H70.0357C70.6224 84.4 71.0784 84.5467 71.4037 84.84C71.7344 85.128 71.8997 85.552 71.8997 86.112C71.8997 86.432 71.8224 86.7227 71.6677 86.984C71.5184 87.24 71.3077 87.4427 71.0357 87.592L72.1557 90H71.2917L70.2917 87.808C70.2064 87.8187 70.1184 87.824 70.0277 87.824H69.3237V90H68.5957V84.4ZM69.9717 87.152C70.3771 87.152 70.6731 87.064 70.8597 86.888C71.0464 86.712 71.1397 86.4533 71.1397 86.112C71.1397 85.7653 71.0464 85.504 70.8597 85.328C70.6731 85.152 70.3771 85.064 69.9717 85.064H69.3237V87.152H69.9717ZM74.4225 84.4H77.3745V85.064H75.1505V86.728H76.8705V87.4H75.1505V90H74.4225V84.4ZM80.0808 90.112C79.6222 90.112 79.2115 89.992 78.8488 89.752C78.4915 89.512 78.2115 89.1733 78.0088 88.736C77.8062 88.2933 77.7048 87.7813 77.7048 87.2C77.7048 86.6187 77.8062 86.1093 78.0088 85.672C78.2115 85.2293 78.4915 84.888 78.8488 84.648C79.2115 84.408 79.6222 84.288 80.0808 84.288C80.5395 84.288 80.9475 84.408 81.3048 84.648C81.6622 84.888 81.9422 85.2293 82.1448 85.672C82.3475 86.1093 82.4488 86.6187 82.4488 87.2C82.4488 87.7813 82.3475 88.2933 82.1448 88.736C81.9422 89.1733 81.6622 89.512 81.3048 89.752C80.9475 89.992 80.5395 90.112 80.0808 90.112ZM80.0808 89.384C80.5928 89.384 80.9848 89.1813 81.2568 88.776C81.5342 88.3653 81.6728 87.84 81.6728 87.2C81.6728 86.56 81.5342 86.0373 81.2568 85.632C80.9848 85.2213 80.5928 85.016 80.0808 85.016C79.5688 85.016 79.1742 85.2213 78.8968 85.632C78.6195 86.0373 78.4808 86.56 78.4808 87.2C78.4808 87.84 78.6195 88.3653 78.8968 88.776C79.1742 89.1813 79.5688 89.384 80.0808 89.384ZM83.2754 84.4H84.7154C85.3021 84.4 85.7581 84.5467 86.0834 84.84C86.4141 85.128 86.5794 85.552 86.5794 86.112C86.5794 86.432 86.5021 86.7227 86.3474 86.984C86.1981 87.24 85.9874 87.4427 85.7154 87.592L86.8354 90H85.9714L84.9714 87.808C84.8861 87.8187 84.7981 87.824 84.7074 87.824H84.0034V90H83.2754V84.4ZM84.6514 87.152C85.0567 87.152 85.3527 87.064 85.5394 86.888C85.7261 86.712 85.8194 86.4533 85.8194 86.112C85.8194 85.7653 85.7261 85.504 85.5394 85.328C85.3527 85.152 85.0567 85.064 84.6514 85.064H84.0034V87.152H84.6514ZM91.4382 90.112C90.8996 90.112 90.4329 89.9893 90.0382 89.744C89.6436 89.4933 89.3396 89.1493 89.1262 88.712C88.9182 88.2693 88.8142 87.7653 88.8142 87.2C88.8142 86.6187 88.9262 86.1093 89.1502 85.672C89.3742 85.2293 89.6809 84.888 90.0702 84.648C90.4649 84.408 90.9129 84.288 91.4142 84.288C91.8729 84.288 92.2889 84.368 92.6622 84.528L92.5822 85.208C92.4062 85.1227 92.2302 85.0587 92.0542 85.016C91.8836 84.9733 91.6942 84.952 91.4862 84.952C91.0916 84.952 90.7529 85.0507 90.4702 85.248C90.1929 85.4453 89.9822 85.7147 89.8382 86.056C89.6942 86.3973 89.6222 86.7787 89.6222 87.2C89.6222 87.872 89.7796 88.416 90.0942 88.832C90.4089 89.2427 90.8702 89.448 91.4782 89.448C91.7129 89.448 91.9182 89.4107 92.0942 89.336V87.856H91.3822V87.192H92.8222V89.744C92.6462 89.856 92.4356 89.944 92.1902 90.008C91.9449 90.0773 91.6942 90.112 91.4382 90.112ZM95.7605 90.112C95.3019 90.112 94.8912 89.992 94.5285 89.752C94.1712 89.512 93.8912 89.1733 93.6885 88.736C93.4859 88.2933 93.3845 87.7813 93.3845 87.2C93.3845 86.6187 93.4859 86.1093 93.6885 85.672C93.8912 85.2293 94.1712 84.888 94.5285 84.648C94.8912 84.408 95.3019 84.288 95.7605 84.288C96.2192 84.288 96.6272 84.408 96.9845 84.648C97.3419 84.888 97.6219 85.2293 97.8245 85.672C98.0272 86.1093 98.1285 86.6187 98.1285 87.2C98.1285 87.7813 98.0272 88.2933 97.8245 88.736C97.6219 89.1733 97.3419 89.512 96.9845 89.752C96.6272 89.992 96.2192 90.112 95.7605 90.112ZM95.7605 89.384C96.2725 89.384 96.6645 89.1813 96.9365 88.776C97.2139 88.3653 97.3525 87.84 97.3525 87.2C97.3525 86.56 97.2139 86.0373 96.9365 85.632C96.6645 85.2213 96.2725 85.016 95.7605 85.016C95.2485 85.016 94.8539 85.2213 94.5765 85.632C94.2992 86.0373 94.1605 86.56 94.1605 87.2C94.1605 87.84 94.2992 88.3653 94.5765 88.776C94.8539 89.1813 95.2485 89.384 95.7605 89.384ZM102.757 84.4L100.981 90H100.141L98.3648 84.4H99.1488L100.565 89.064L101.981 84.4H102.757ZM103.36 84.4H106.352V85.064H104.088V86.736H105.88V87.408H104.088V89.336H106.416V90H103.36V84.4ZM107.229 84.4H108.669C109.255 84.4 109.711 84.5467 110.037 84.84C110.367 85.128 110.533 85.552 110.533 86.112C110.533 86.432 110.455 86.7227 110.301 86.984C110.151 87.24 109.941 87.4427 109.669 87.592L110.789 90H109.925L108.925 87.808C108.839 87.8187 108.751 87.824 108.661 87.824H107.957V90H107.229V84.4ZM108.605 87.152C109.01 87.152 109.306 87.064 109.493 86.888C109.679 86.712 109.773 86.4533 109.773 86.112C109.773 85.7653 109.679 85.504 109.493 85.328C109.306 85.152 109.01 85.064 108.605 85.064H107.957V87.152H108.605ZM111.501 84.4H112.325L114.541 88.496V84.4H115.269V90H114.589L112.229 85.672V90H111.501V84.4ZM118.825 88.48H117.089L116.641 90H115.857L117.577 84.4H118.329L120.049 90H119.273L118.825 88.48ZM118.625 87.8L117.953 85.528L117.289 87.8H118.625ZM120.641 84.4H121.465L123.681 88.496V84.4H124.409V90H123.729L121.369 85.672V90H120.641V84.4ZM127.734 90.112C127.216 90.112 126.766 89.9947 126.382 89.76C125.998 89.52 125.699 89.1813 125.486 88.744C125.278 88.3013 125.174 87.7867 125.174 87.2C125.174 86.6187 125.28 86.1093 125.494 85.672C125.712 85.2293 126.014 84.888 126.398 84.648C126.782 84.408 127.216 84.288 127.702 84.288C128.128 84.288 128.534 84.368 128.918 84.528L128.838 85.208C128.496 85.0373 128.166 84.952 127.846 84.952C127.451 84.952 127.112 85.0507 126.83 85.248C126.552 85.4453 126.342 85.7147 126.198 86.056C126.054 86.3973 125.982 86.7787 125.982 87.2C125.982 87.6213 126.054 88.0027 126.198 88.344C126.342 88.6853 126.552 88.9547 126.83 89.152C127.112 89.3493 127.454 89.448 127.854 89.448C128.2 89.448 128.528 89.368 128.838 89.208L128.918 89.888C128.576 90.0373 128.182 90.112 127.734 90.112ZM129.657 84.4H132.649V85.064H130.385V86.736H132.177V87.408H130.385V89.336H132.713V90H129.657V84.4ZM133.317 90.856L133.605 90H133.341V89.16H134.141V89.92L133.725 90.856H133.317ZM139.052 88.48H137.316L136.868 90H136.084L137.804 84.4H138.556L140.276 90H139.5L139.052 88.48ZM138.852 87.8L138.18 85.528L137.516 87.8H138.852ZM142.196 90.112C141.935 90.112 141.66 90.08 141.372 90.016C141.089 89.9573 140.857 89.8853 140.676 89.8L140.78 89C140.993 89.1333 141.231 89.2427 141.492 89.328C141.753 89.408 142.012 89.448 142.268 89.448C142.599 89.448 142.857 89.3813 143.044 89.248C143.231 89.1093 143.324 88.9093 143.324 88.648C143.324 88.4613 143.279 88.3013 143.188 88.168C143.103 88.0347 142.977 87.9173 142.812 87.816C142.647 87.7093 142.415 87.5893 142.116 87.456C141.764 87.296 141.484 87.1493 141.276 87.016C141.073 86.8827 140.911 86.7173 140.788 86.52C140.665 86.3227 140.604 86.0773 140.604 85.784C140.604 85.4853 140.681 85.224 140.836 85C140.991 84.7707 141.207 84.5947 141.484 84.472C141.767 84.3493 142.087 84.288 142.444 84.288C142.716 84.288 142.972 84.3173 143.212 84.376C143.457 84.4347 143.665 84.5067 143.836 84.592L143.756 85.344C143.313 85.0827 142.863 84.952 142.404 84.952C142.095 84.952 141.852 85.016 141.676 85.144C141.5 85.272 141.412 85.4693 141.412 85.736C141.412 85.9173 141.457 86.0693 141.548 86.192C141.644 86.3093 141.775 86.416 141.94 86.512C142.105 86.6027 142.356 86.7253 142.692 86.88C143.193 87.104 143.559 87.3467 143.788 87.608C144.017 87.864 144.132 88.1867 144.132 88.576C144.132 89.0507 143.959 89.4267 143.612 89.704C143.265 89.976 142.793 90.112 142.196 90.112ZM146.188 90.112C145.927 90.112 145.652 90.08 145.364 90.016C145.081 89.9573 144.849 89.8853 144.668 89.8L144.772 89C144.985 89.1333 145.223 89.2427 145.484 89.328C145.745 89.408 146.004 89.448 146.26 89.448C146.591 89.448 146.849 89.3813 147.036 89.248C147.223 89.1093 147.316 88.9093 147.316 88.648C147.316 88.4613 147.271 88.3013 147.18 88.168C147.095 88.0347 146.969 87.9173 146.804 87.816C146.639 87.7093 146.407 87.5893 146.108 87.456C145.756 87.296 145.476 87.1493 145.268 87.016C145.065 86.8827 144.903 86.7173 144.78 86.52C144.657 86.3227 144.596 86.0773 144.596 85.784C144.596 85.4853 144.673 85.224 144.828 85C144.983 84.7707 145.199 84.5947 145.476 84.472C145.759 84.3493 146.079 84.288 146.436 84.288C146.708 84.288 146.964 84.3173 147.204 84.376C147.449 84.4347 147.657 84.5067 147.828 84.592L147.748 85.344C147.305 85.0827 146.855 84.952 146.396 84.952C146.087 84.952 145.844 85.016 145.668 85.144C145.492 85.272 145.404 85.4693 145.404 85.736C145.404 85.9173 145.449 86.0693 145.54 86.192C145.636 86.3093 145.767 86.416 145.932 86.512C146.097 86.6027 146.348 86.7253 146.684 86.88C147.185 87.104 147.551 87.3467 147.78 87.608C148.009 87.864 148.124 88.1867 148.124 88.576C148.124 89.0507 147.951 89.4267 147.604 89.704C147.257 89.976 146.785 90.112 146.188 90.112ZM148.852 84.4H151.844V85.064H149.58V86.736H151.372V87.408H149.58V89.336H151.908V90H148.852V84.4ZM153.673 85.064H152.281V84.4H155.801V85.064H154.409V90H153.673V85.064ZM16.1192 92.4H17.5592C18.1458 92.4 18.6018 92.5467 18.9272 92.84C19.2578 93.128 19.4232 93.552 19.4232 94.112C19.4232 94.432 19.3458 94.7227 19.1912 94.984C19.0418 95.24 18.8312 95.4427 18.5592 95.592L19.6792 98H18.8152L17.8152 95.808C17.7298 95.8187 17.6418 95.824 17.5512 95.824H16.8472V98H16.1192V92.4ZM17.4952 95.152C17.9005 95.152 18.1965 95.064 18.3832 94.888C18.5698 94.712 18.6632 94.4533 18.6632 94.112C18.6632 93.7653 18.5698 93.504 18.3832 93.328C18.1965 93.152 17.9005 93.064 17.4952 93.064H16.8472V95.152H17.4952ZM20.3913 92.4H23.3833V93.064H21.1193V94.736H22.9113V95.408H21.1193V97.336H23.4473V98H20.3913V92.4ZM26.382 98.112C25.8647 98.112 25.414 97.9947 25.03 97.76C24.646 97.52 24.3474 97.1813 24.134 96.744C23.926 96.3013 23.822 95.7867 23.822 95.2C23.822 94.6187 23.9287 94.1093 24.142 93.672C24.3607 93.2293 24.662 92.888 25.046 92.648C25.43 92.408 25.8647 92.288 26.35 92.288C26.7767 92.288 27.182 92.368 27.566 92.528L27.486 93.208C27.1447 93.0373 26.814 92.952 26.494 92.952C26.0994 92.952 25.7607 93.0507 25.478 93.248C25.2007 93.4453 24.99 93.7147 24.846 94.056C24.702 94.3973 24.63 94.7787 24.63 95.2C24.63 95.6213 24.702 96.0027 24.846 96.344C24.99 96.6853 25.2007 96.9547 25.478 97.152C25.7607 97.3493 26.102 97.448 26.502 97.448C26.8487 97.448 27.1767 97.368 27.486 97.208L27.566 97.888C27.2247 98.0373 26.83 98.112 26.382 98.112ZM30.2918 98.112C29.8331 98.112 29.4224 97.992 29.0598 97.752C28.7024 97.512 28.4224 97.1733 28.2198 96.736C28.0171 96.2933 27.9158 95.7813 27.9158 95.2C27.9158 94.6187 28.0171 94.1093 28.2198 93.672C28.4224 93.2293 28.7024 92.888 29.0598 92.648C29.4224 92.408 29.8331 92.288 30.2918 92.288C30.7504 92.288 31.1584 92.408 31.5158 92.648C31.8731 92.888 32.1531 93.2293 32.3558 93.672C32.5584 94.1093 32.6598 94.6187 32.6598 95.2C32.6598 95.7813 32.5584 96.2933 32.3558 96.736C32.1531 97.1733 31.8731 97.512 31.5158 97.752C31.1584 97.992 30.7504 98.112 30.2918 98.112ZM30.2918 97.384C30.8038 97.384 31.1958 97.1813 31.4678 96.776C31.7451 96.3653 31.8838 95.84 31.8838 95.2C31.8838 94.56 31.7451 94.0373 31.4678 93.632C31.1958 93.2213 30.8038 93.016 30.2918 93.016C29.7798 93.016 29.3851 93.2213 29.1078 93.632C28.8304 94.0373 28.6918 94.56 28.6918 95.2C28.6918 95.84 28.8304 96.3653 29.1078 96.776C29.3851 97.1813 29.7798 97.384 30.2918 97.384ZM37.288 92.4L35.512 98H34.672L32.896 92.4H33.68L35.096 97.064L36.512 92.4H37.288ZM37.8913 92.4H40.8833V93.064H38.6193V94.736H40.4113V95.408H38.6193V97.336H40.9473V98H37.8913V92.4ZM41.7598 92.4H43.1998C43.7864 92.4 44.2424 92.5467 44.5678 92.84C44.8984 93.128 45.0638 93.552 45.0638 94.112C45.0638 94.432 44.9864 94.7227 44.8318 94.984C44.6824 95.24 44.4718 95.4427 44.1998 95.592L45.3198 98H44.4558L43.4558 95.808C43.3704 95.8187 43.2824 95.824 43.1918 95.824H42.4878V98H41.7598V92.4ZM43.1358 95.152C43.5411 95.152 43.8371 95.064 44.0238 94.888C44.2104 94.712 44.3038 94.4533 44.3038 94.112C44.3038 93.7653 44.2104 93.504 44.0238 93.328C43.8371 93.152 43.5411 93.064 43.1358 93.064H42.4878V95.152H43.1358ZM49.4343 92.4L47.7863 95.576V98H47.0583V95.576L45.3943 92.4H46.2023L47.4183 94.808L48.6263 92.4H49.4343ZM49.5908 98.856L49.8788 98H49.6148V97.16H50.4148V97.92L49.9988 98.856H49.5908ZM55.325 96.48H53.589L53.141 98H52.357L54.077 92.4H54.829L56.549 98H55.773L55.325 96.48ZM55.125 95.8L54.453 93.528L53.789 95.8H55.125ZM57.1413 92.4H57.9653L60.1813 96.496V92.4H60.9093V98H60.2293L57.8693 93.672V98H57.1413V92.4ZM61.9616 92.4H63.7536C64.2176 92.4 64.6283 92.512 64.9856 92.736C65.3483 92.96 65.6309 93.2827 65.8336 93.704C66.0363 94.1253 66.1376 94.624 66.1376 95.2C66.1376 95.776 66.0363 96.2747 65.8336 96.696C65.6309 97.1173 65.3483 97.44 64.9856 97.664C64.6283 97.888 64.2176 98 63.7536 98H61.9616V92.4ZM63.6176 97.336C64.1776 97.336 64.6016 97.1493 64.8896 96.776C65.1829 96.4027 65.3296 95.8773 65.3296 95.2C65.3296 94.5227 65.1829 93.9973 64.8896 93.624C64.6016 93.2507 64.1776 93.064 63.6176 93.064H62.6896V97.336H63.6176ZM69.7974 98.112C69.5361 98.112 69.2614 98.08 68.9734 98.016C68.6907 97.9573 68.4587 97.8853 68.2774 97.8L68.3814 97C68.5947 97.1333 68.8321 97.2427 69.0934 97.328C69.3547 97.408 69.6134 97.448 69.8694 97.448C70.2001 97.448 70.4587 97.3813 70.6454 97.248C70.8321 97.1093 70.9254 96.9093 70.9254 96.648C70.9254 96.4613 70.8801 96.3013 70.7894 96.168C70.7041 96.0347 70.5787 95.9173 70.4134 95.816C70.2481 95.7093 70.0161 95.5893 69.7174 95.456C69.3654 95.296 69.0854 95.1493 68.8774 95.016C68.6747 94.8827 68.5121 94.7173 68.3894 94.52C68.2667 94.3227 68.2054 94.0773 68.2054 93.784C68.2054 93.4853 68.2827 93.224 68.4374 93C68.5921 92.7707 68.8081 92.5947 69.0854 92.472C69.3681 92.3493 69.6881 92.288 70.0454 92.288C70.3174 92.288 70.5734 92.3173 70.8134 92.376C71.0587 92.4347 71.2667 92.5067 71.4374 92.592L71.3574 93.344C70.9147 93.0827 70.4641 92.952 70.0054 92.952C69.6961 92.952 69.4534 93.016 69.2774 93.144C69.1014 93.272 69.0134 93.4693 69.0134 93.736C69.0134 93.9173 69.0587 94.0693 69.1494 94.192C69.2454 94.3093 69.3761 94.416 69.5414 94.512C69.7067 94.6027 69.9574 94.7253 70.2934 94.88C70.7947 95.104 71.1601 95.3467 71.3894 95.608C71.6187 95.864 71.7334 96.1867 71.7334 96.576C71.7334 97.0507 71.5601 97.4267 71.2134 97.704C70.8667 97.976 70.3947 98.112 69.7974 98.112ZM74.3976 98.112C73.7203 98.112 73.2189 97.9093 72.8936 97.504C72.5683 97.0987 72.4056 96.5253 72.4056 95.784V92.4H73.1336V95.576C73.1336 95.9653 73.1629 96.2933 73.2216 96.56C73.2856 96.8267 73.4109 97.0427 73.5976 97.208C73.7843 97.368 74.0509 97.448 74.3976 97.448C74.7496 97.448 75.0189 97.368 75.2056 97.208C75.3923 97.0427 75.5149 96.8267 75.5736 96.56C75.6376 96.2933 75.6696 95.9653 75.6696 95.576V92.4H76.3976V95.784C76.3976 96.5307 76.2349 97.1067 75.9096 97.512C75.5843 97.912 75.0803 98.112 74.3976 98.112ZM78.7271 98.112C78.4658 98.112 78.1911 98.08 77.9031 98.016C77.6204 97.9573 77.3884 97.8853 77.2071 97.8L77.3111 97C77.5244 97.1333 77.7618 97.2427 78.0231 97.328C78.2844 97.408 78.5431 97.448 78.7991 97.448C79.1298 97.448 79.3884 97.3813 79.5751 97.248C79.7618 97.1093 79.8551 96.9093 79.8551 96.648C79.8551 96.4613 79.8098 96.3013 79.7191 96.168C79.6338 96.0347 79.5084 95.9173 79.3431 95.816C79.1778 95.7093 78.9458 95.5893 78.6471 95.456C78.2951 95.296 78.0151 95.1493 77.8071 95.016C77.6044 94.8827 77.4418 94.7173 77.3191 94.52C77.1964 94.3227 77.1351 94.0773 77.1351 93.784C77.1351 93.4853 77.2124 93.224 77.3671 93C77.5218 92.7707 77.7378 92.5947 78.0151 92.472C78.2978 92.3493 78.6178 92.288 78.9751 92.288C79.2471 92.288 79.5031 92.3173 79.7431 92.376C79.9884 92.4347 80.1964 92.5067 80.3671 92.592L80.2871 93.344C79.8444 93.0827 79.3938 92.952 78.9351 92.952C78.6258 92.952 78.3831 93.016 78.2071 93.144C78.0311 93.272 77.9431 93.4693 77.9431 93.736C77.9431 93.9173 77.9884 94.0693 78.0791 94.192C78.1751 94.3093 78.3058 94.416 78.4711 94.512C78.6364 94.6027 78.8871 94.7253 79.2231 94.88C79.7244 95.104 80.0898 95.3467 80.3191 95.608C80.5484 95.864 80.6631 96.1867 80.6631 96.576C80.6631 97.0507 80.4898 97.4267 80.1431 97.704C79.7964 97.976 79.3244 98.112 78.7271 98.112ZM82.3993 93.064H81.0073V92.4H84.5273V93.064H83.1353V98H82.3993V93.064ZM87.3328 96.48H85.5968L85.1488 98H84.3648L86.0848 92.4H86.8368L88.5568 98H87.7808L87.3328 96.48ZM87.1328 95.8L86.4608 93.528L85.7968 95.8H87.1328ZM89.2131 92.4H89.9491V98H89.2131V92.4ZM91.071 92.4H91.895L94.111 96.496V92.4H94.839V98H94.159L91.799 93.672V98H91.071V92.4ZM98.3953 96.48H96.6593L96.2113 98H95.4273L97.1473 92.4H97.8993L99.6193 98H98.8433L98.3953 96.48ZM98.1953 95.8L97.5233 93.528L96.8593 95.8H98.1953ZM102.724 94.984C103.326 95.208 103.628 95.68 103.628 96.4C103.628 96.8907 103.484 97.28 103.196 97.568C102.913 97.856 102.521 98 102.02 98H100.212V92.4H101.668C102.164 92.4 102.548 92.5173 102.82 92.752C103.092 92.9813 103.228 93.3227 103.228 93.776C103.228 94.0427 103.185 94.2827 103.1 94.496C103.014 94.704 102.889 94.8667 102.724 94.984ZM100.94 94.736H101.58C101.9 94.736 102.124 94.6773 102.252 94.56C102.385 94.4373 102.452 94.2133 102.452 93.888C102.452 93.5733 102.385 93.3573 102.252 93.24C102.124 93.1227 101.9 93.064 101.58 93.064H100.94V94.736ZM101.956 97.336C102.228 97.336 102.441 97.256 102.596 97.096C102.756 96.9307 102.836 96.6907 102.836 96.376C102.836 96.0347 102.758 95.7893 102.604 95.64C102.454 95.4853 102.238 95.408 101.956 95.408H100.94V97.336H101.956ZM104.462 92.4H105.19V97.336H107.326V98H104.462V92.4ZM107.899 92.4H110.891V93.064H108.627V94.736H110.419V95.408H108.627V97.336H110.955V98H107.899V92.4ZM113.266 92.4H115.058C115.522 92.4 115.933 92.512 116.29 92.736C116.653 92.96 116.936 93.2827 117.138 93.704C117.341 94.1253 117.442 94.624 117.442 95.2C117.442 95.776 117.341 96.2747 117.138 96.696C116.936 97.1173 116.653 97.44 116.29 97.664C115.933 97.888 115.522 98 115.058 98H113.266V92.4ZM114.922 97.336C115.482 97.336 115.906 97.1493 116.194 96.776C116.488 96.4027 116.634 95.8773 116.634 95.2C116.634 94.5227 116.488 93.9973 116.194 93.624C115.906 93.2507 115.482 93.064 114.922 93.064H113.994V97.336H114.922ZM118.219 92.4H121.211V93.064H118.947V94.736H120.739V95.408H118.947V97.336H121.275V98H118.219V92.4ZM125.96 92.4L124.184 98H123.344L121.568 92.4H122.352L123.768 97.064L125.184 92.4H125.96ZM126.563 92.4H129.555V93.064H127.291V94.736H129.083V95.408H127.291V97.336H129.619V98H126.563V92.4ZM130.376 92.4H131.104V97.336H133.24V98H130.376V92.4ZM135.815 98.112C135.357 98.112 134.946 97.992 134.583 97.752C134.226 97.512 133.946 97.1733 133.743 96.736C133.541 96.2933 133.439 95.7813 133.439 95.2C133.439 94.6187 133.541 94.1093 133.743 93.672C133.946 93.2293 134.226 92.888 134.583 92.648C134.946 92.408 135.357 92.288 135.815 92.288C136.274 92.288 136.682 92.408 137.039 92.648C137.397 92.888 137.677 93.2293 137.879 93.672C138.082 94.1093 138.183 94.6187 138.183 95.2C138.183 95.7813 138.082 96.2933 137.879 96.736C137.677 97.1733 137.397 97.512 137.039 97.752C136.682 97.992 136.274 98.112 135.815 98.112ZM135.815 97.384C136.327 97.384 136.719 97.1813 136.991 96.776C137.269 96.3653 137.407 95.84 137.407 95.2C137.407 94.56 137.269 94.0373 136.991 93.632C136.719 93.2213 136.327 93.016 135.815 93.016C135.303 93.016 134.909 93.2213 134.631 93.632C134.354 94.0373 134.215 94.56 134.215 95.2C134.215 95.84 134.354 96.3653 134.631 96.776C134.909 97.1813 135.303 97.384 135.815 97.384ZM139.018 92.4H140.458C141.044 92.4 141.5 92.5547 141.826 92.864C142.156 93.1733 142.322 93.624 142.322 94.216C142.322 94.808 142.156 95.2613 141.826 95.576C141.5 95.8853 141.044 96.04 140.458 96.04H139.754V98H139.018V92.4ZM140.394 95.368C141.172 95.368 141.562 94.984 141.562 94.216C141.562 93.448 141.172 93.064 140.394 93.064H139.754V95.368H140.394ZM146.995 98L146.627 93.952L145.275 96.84L143.923 93.952L143.547 98H142.771L143.379 92.4H143.995L145.275 95.288L146.555 92.4H147.171L147.779 98H146.995ZM148.555 92.4H151.547V93.064H149.283V94.736H151.075V95.408H149.283V97.336H151.611V98H148.555V92.4ZM152.368 92.4H153.192L155.408 96.496V92.4H156.136V98H155.456L153.096 93.672V98H152.368V92.4ZM158.196 93.064H156.804V92.4H160.324V93.064H158.932V98H158.196V93.064Z" fill="black"/>
<path d="M93.976 49.448C92.0347 49.448 90.3067 48.9787 88.792 48.04C87.2773 47.08 86.0933 45.7253 85.24 43.976C84.3867 42.2053 83.96 40.1467 83.96 37.8C83.96 35.4533 84.3867 33.4053 85.24 31.656C86.1147 29.8853 87.3093 28.5307 88.824 27.592C90.3387 26.632 92.056 26.152 93.976 26.152C95.7253 26.152 97.3787 26.4933 98.936 27.176L98.52 30.664C97.8373 30.3227 97.176 30.0667 96.536 29.896C95.9173 29.7253 95.2453 29.64 94.52 29.64C92.4293 29.64 90.7973 30.3867 89.624 31.88C88.4507 33.352 87.864 35.3253 87.864 37.8C87.864 40.2747 88.4507 42.2587 89.624 43.752C90.7973 45.224 92.4187 45.96 94.488 45.96C95.2133 45.96 95.8853 45.8747 96.504 45.704C97.144 45.5333 97.816 45.288 98.52 44.968L98.936 48.456C97.5493 49.1173 95.896 49.448 93.976 49.448Z" fill="#3A3737"/>
</svg>
